<svg width="16" height="16" viewBox="0 0 16 16" fill="none" xmlns="http://www.w3.org/2000/svg">
    <path fill-rule="evenodd" clip-rule="evenodd"
        d="M15.2219 8.54275C15.2219 11.0625 14.6326 12.9365 13.4539 14.1646C12.2753 15.3884 10.4572 16.0002 7.99952 16C5.70621 16 3.96618 15.3882 2.77943 14.1646C1.59267 12.941 0.999528 11.0953 0.999993 8.62754V0.353092C1.00018 0.259916 1.03814 0.170604 1.10558 0.104687C1.17301 0.0387695 1.26444 0.00161266 1.35985 0.00134276H5.51849C5.61394 0.00161228 5.7054 0.0387581 5.7729 0.104666C5.84039 0.170573 5.87843 0.259885 5.87871 0.353092V8.80971C5.87871 9.81729 6.06945 10.5923 6.4579 11.1392C6.65053 11.3888 6.89901 11.5921 7.18437 11.7337C7.46974 11.8752 7.78445 11.9513 8.10449 11.956C8.42453 11.9607 8.74144 11.8939 9.03103 11.7608C9.32062 11.6277 9.57525 11.4317 9.77547 11.1879C10.1553 10.6748 10.3446 9.91854 10.3432 8.91902V7.3353H15.2219V8.54275Z"
        fill="#1F3E79" />
    <path fill-rule="evenodd" clip-rule="evenodd"
        d="M14.8448 6.4098H10.3434V0.368435C10.3436 0.270834 10.3834 0.177277 10.454 0.108231C10.5247 0.0391846 10.6204 0.000269948 10.7204 0H11.3944C11.3951 0.990643 11.7985 1.9405 12.5161 2.64076C13.2337 3.34103 14.2066 3.7344 15.2211 3.7344V6.4098H14.8448Z"
        fill="#1F3E79" />
    <path fill-rule="evenodd" clip-rule="evenodd"
        d="M12.353 0H14.8448C14.9448 0.000269579 15.0406 0.0391732 15.1113 0.10821C15.182 0.177246 15.2219 0.270803 15.2221 0.368435V2.80446C14.4612 2.80446 13.7314 2.50928 13.1933 1.98385C12.6553 1.45842 12.353 0.745791 12.353 0.00272416V0Z"
        fill="#F4821F" />
</svg>
