<svg width="80" height="40" viewBox="0 0 80 40" fill="none" xmlns="http://www.w3.org/2000/svg">
    <g clip-path="url(#clip0_1069_668)">
        <path fill-rule="evenodd" clip-rule="evenodd"
            d="M79.0423 16.725C79.0423 21.6583 77.839 25.3272 75.4323 27.7316C73.0255 30.1276 69.3129 31.3254 64.2944 31.325C59.6115 31.325 56.0584 30.1272 53.635 27.7316C51.2117 25.3361 50.0005 21.7225 50.0015 16.891V0.690956C50.0018 0.508533 50.0794 0.333674 50.2171 0.204619C50.3548 0.0755641 50.5415 0.00281724 50.7363 0.00228882H59.2282C59.4231 0.00281648 59.6098 0.0755418 59.7477 0.204578C59.8855 0.333613 59.9632 0.508472 59.9637 0.690956V17.2476C59.9637 19.2203 60.3532 20.7376 61.1464 21.8083C61.5398 22.297 62.0472 22.6951 62.6299 22.9723C63.2126 23.2494 63.8552 23.3983 64.5087 23.4075C65.1623 23.4167 65.8094 23.286 66.4007 23.0253C66.9921 22.7647 67.512 22.381 67.9209 21.9036C68.6965 20.8992 69.0829 19.4185 69.0801 17.4616V14.361H79.0423V16.725Z"
            fill="white" />
        <path fill-rule="evenodd" clip-rule="evenodd"
            d="M78.2726 12.5493H69.0807V0.721334C69.0811 0.530248 69.1623 0.347079 69.3066 0.211898C69.4508 0.0767169 69.6464 0.000528513 69.8505 0H71.2269C71.2282 1.93952 72.052 3.79917 73.5173 5.17018C74.9826 6.54118 76.9693 7.31133 79.0409 7.31133V12.5493H78.2726Z"
            fill="white" />
        <path fill-rule="evenodd" clip-rule="evenodd"
            d="M73.1843 0H78.2726C78.4767 0.000527791 78.6724 0.0766946 78.8167 0.211857C78.9611 0.347019 79.0424 0.530187 79.043 0.721334V5.49067C77.4892 5.49067 75.999 4.91275 74.9002 3.88405C73.8015 2.85535 73.1843 1.46013 73.1843 0.00533346V0Z"
            fill="white" />
        <path fill-rule="evenodd" clip-rule="evenodd"
            d="M77.087 38.4853H76.417V36.3233H77.087C77.3727 36.3035 77.6551 36.3907 77.8722 36.5657C78.0893 36.7407 78.2233 36.9892 78.2448 37.2567C78.2484 37.3062 78.2484 37.3558 78.2448 37.4053C78.2572 37.6796 78.1526 37.9473 77.9542 38.1495C77.7558 38.3516 77.4797 38.4717 77.1867 38.4833C77.1525 38.4833 77.1191 38.4833 77.0849 38.4833L77.087 38.4853ZM77.087 39.1333C78.2448 39.1333 79.048 38.4487 79.048 37.4067C79.048 36.3647 78.2434 35.6733 77.087 35.6733H75.6273V39.132L77.087 39.1333ZM72.2316 37.256H71.4035V36.3227H72.2259C72.2913 36.3162 72.3575 36.3218 72.4206 36.3393C72.4837 36.3568 72.5426 36.3857 72.5937 36.4245C72.6449 36.4632 72.6874 36.511 72.7189 36.5652C72.7503 36.6193 72.7701 36.6787 72.777 36.74C72.7839 36.8013 72.7779 36.8632 72.7592 36.9223C72.7406 36.9814 72.7097 37.0365 72.6683 37.0844C72.6269 37.1323 72.5758 37.1722 72.518 37.2016C72.4602 37.231 72.3967 37.2495 72.3312 37.256C72.2962 37.2593 72.2609 37.2593 72.2259 37.256H72.2316ZM74.1356 40L72.7827 37.816C73.0251 37.7615 73.2392 37.6286 73.3871 37.4408C73.5351 37.253 73.6075 37.0223 73.5916 36.7893C73.5974 36.648 73.5734 36.5069 73.521 36.3743C73.4685 36.2416 73.3887 36.1199 73.286 36.0161C73.1833 35.9123 73.0597 35.8285 72.9224 35.7695C72.7851 35.7105 72.6368 35.6773 72.4858 35.672C72.4409 35.6697 72.396 35.6697 72.3512 35.672H70.6166V39.1307H71.4035V37.904H71.9795L73.2299 39.9993L74.1356 40ZM67.4851 37.898H66.3301L66.9047 36.41L67.4808 37.898H67.4851ZM68.8258 39.1327L67.4017 35.674H66.4141L64.9822 39.1327H65.8794L66.1122 38.546H67.6965L67.9237 39.1327H68.8258ZM61.9539 39.1947C62.2705 39.2016 62.5828 39.1256 62.8558 38.9753C63.1288 38.825 63.3516 38.6064 63.499 38.344L62.8218 38.038C62.7395 38.1881 62.6149 38.3143 62.4615 38.403C62.3082 38.4917 62.1319 38.5395 61.9517 38.5413C61.6414 38.5256 61.3493 38.3991 61.1356 38.1878C60.9218 37.9766 60.8027 37.6966 60.8027 37.4057C60.8027 37.1147 60.9218 36.8348 61.1356 36.6235C61.3493 36.4123 61.6414 36.2857 61.9517 36.27C62.1316 36.2729 62.3073 36.3211 62.4604 36.4096C62.6135 36.498 62.7384 36.6235 62.8218 36.7727L63.499 36.4613C63.3517 36.1992 63.1288 35.9811 62.8557 35.8316C62.5825 35.6822 62.2701 35.6075 61.9539 35.616C61.7029 35.609 61.4529 35.6483 61.2182 35.7318C60.9834 35.8152 60.7686 35.9412 60.5858 36.1024C60.403 36.2636 60.256 36.4569 60.153 36.6713C60.0501 36.8857 59.9932 37.117 59.9858 37.352C59.9783 37.587 60.0203 37.821 60.1094 38.0408C60.1986 38.2606 60.3331 38.4618 60.5052 38.6329C60.6774 38.804 60.8839 38.9417 61.1129 39.038C61.3419 39.1344 61.589 39.1877 61.8399 39.1947C61.8777 39.1947 61.9161 39.1947 61.9539 39.1947ZM58.195 39.1327V38.4847H56.4148L58.1594 36.2633V35.672H55.3824V36.3207H57.1269L55.3824 38.5347V39.13H58.1957L58.195 39.1327ZM51.6719 39.1947C52.7962 39.1947 53.3395 38.6087 53.3395 37.748V35.674H52.5313V37.7273C52.5313 37.9425 52.44 38.1489 52.2775 38.301C52.115 38.4532 51.8946 38.5387 51.6648 38.5387C51.4349 38.5387 51.2145 38.4532 51.052 38.301C50.8895 38.1489 50.7982 37.9425 50.7982 37.7273V35.674H50V37.7573C50 38.6073 50.5426 39.1987 51.6676 39.1987L51.6719 39.1947Z"
            fill="white" />
        <path fill-rule="evenodd" clip-rule="evenodd"
            d="M80 35.6087V35.6173C80 35.7447 79.9597 35.8692 79.8841 35.9751C79.8085 36.081 79.7011 36.1636 79.5754 36.2123C79.4497 36.261 79.3114 36.2738 79.178 36.249C79.0445 36.2241 78.922 36.1628 78.8258 36.0727C78.7296 35.9826 78.6641 35.8679 78.6375 35.743C78.611 35.618 78.6246 35.4886 78.6767 35.3709C78.7287 35.2532 78.8169 35.1526 78.93 35.0819C79.0431 35.0111 79.1761 34.9733 79.3122 34.9733H80V35.6087Z"
            fill="white" />
    </g>
    <defs>
        <clipPath id="clip0_1069_668">
            <rect width="30" height="40" fill="white" transform="translate(50)" />
        </clipPath>
    </defs>
</svg>
