<svg width="24" height="24" viewBox="0 0 24 24" fill="none" xmlns="http://www.w3.org/2000/svg">
<path d="
M2.272,3.365C2,3.9 2,4.6 2,6V7C2,8.4 2,9.1 2.272,9.635C2.512,10.105 2.895,10.488 3.365,10.727C3.9,11 4.6,11 6,11H7C8.4,11 9.1,11 9.635,10.727C10.105,10.488 10.488,10.105 10.727,9.635C11,9.1 11,8.4 11,7V6C11,4.6 11,3.9 10.727,3.365C10.488,2.895 10.105,2.512 9.635,2.272C9.1,2 8.4,2 7,2H6C4.6,2 3.9,2 3.365,2.272C2.895,2.512 2.512,2.895 2.272,3.365ZM13.273,3.365C13,3.9 13,4.6 13,6V7C13,8.4 13,9.1 13.273,9.635C13.512,10.105 13.895,10.488 14.365,10.727C14.9,11 15.6,11 17,11H18C19.4,11 20.1,11 20.635,10.727C21.105,10.488 21.488,10.105 21.728,9.635C22,9.1 22,8.4 22,7V6C22,4.6 22,3.9 21.728,3.365C21.488,2.895 21.105,2.512 20.635,2.272C20.1,2 19.4,2 18,2H17C15.6,2 14.9,2 14.365,2.272C13.895,2.512 13.512,2.895 13.273,3.365ZM13,17C13,15.6 13,14.9 13.273,14.365C13.512,13.895 13.895,13.512 14.365,13.273C14.9,13 15.6,13 17,13H18C19.4,13 20.1,13 20.635,13.273C21.105,13.512 21.488,13.895 21.728,14.365C22,14.9 22,15.6 22,17V18C22,19.4 22,20.1 21.728,20.635C21.488,21.105 21.105,21.488 20.635,21.728C20.1,22 19.4,22 18,22H17C15.6,22 14.9,22 14.365,21.728C13.895,21.488 13.512,21.105 13.273,20.635C13,20.1 13,19.4 13,18V17ZM2.272,14.365C2,14.9 2,15.6 2,17V18C2,19.4 2,20.1 2.272,20.635C2.512,21.105 2.895,21.488 3.365,21.728C3.9,22 4.6,22 6,22H7C8.4,22 9.1,22 9.635,21.728C10.105,21.488 10.488,21.105 10.727,20.635C11,20.1 11,19.4 11,18V17C11,15.6 11,14.9 10.727,14.365C10.488,13.895 10.105,13.512 9.635,13.273C9.1,13 8.4,13 7,13H6C4.6,13 3.9,13 3.365,13.273C2.895,13.512 2.512,13.895 2.272,14.365Z
" fill="#333333"/>
</svg>