<svg width="24" height="24" viewBox="0 0 24 24" fill="none" xmlns="http://www.w3.org/2000/svg">
<path d="
M5.4,3H18.6C20.14,3 20.91,3 21.499,3.307C22.016,3.576 22.437,4.006 22.7,4.536C23,5.137 23,5.925 23,7.5V16.5C23,18.075 23,18.863 22.7,19.464C22.437,19.994 22.016,20.424 21.499,20.694C20.91,21 20.14,21 18.6,21H5.4C3.86,21 3.09,21 2.502,20.694C1.984,20.424 1.563,19.994 1.3,19.464C1,18.863 1,18.075 1,16.5V7.5C1,5.925 1,5.137 1.3,4.536C1.563,4.006 1.984,3.576 2.502,3.307C3.09,3 3.86,3 5.4,3ZM17.33,13.5C18.159,13.5 18.83,12.828 18.83,12C18.83,11.172 18.159,10.5 17.33,10.5C16.502,10.5 15.83,11.172 15.83,12C15.83,12.828 16.502,13.5 17.33,13.5Z
" fill="#333333"/>
</svg>