<svg width="24" height="24" viewBox="0 0 24 24" fill="none" xmlns="http://www.w3.org/2000/svg">
<path d="
M2,12C2,6.477 6.477,2 12,2C17.523,2 22,6.477 22,12C22,17.523 17.523,22 12,22C10.672,22 9.401,21.74 8.239,21.268C8.134,21.226 8.074,21.201 8.029,21.184C8.024,21.183 8.019,21.181 8.015,21.179L8.01,21.18C7.973,21.185 7.923,21.193 7.827,21.209L4.24,21.807C4.08,21.834 3.9,21.864 3.744,21.876C3.574,21.889 3.303,21.893 3.017,21.77C2.663,21.619 2.381,21.337 2.23,20.983C2.107,20.697 2.111,20.426 2.124,20.256C2.136,20.1 2.166,19.92 2.193,19.76C2.195,19.75 2.196,19.74 2.198,19.731L2.791,16.173C2.807,16.077 2.815,16.027 2.82,15.99L2.821,15.985C2.819,15.981 2.818,15.976 2.816,15.971C2.799,15.926 2.774,15.866 2.732,15.761C2.26,14.599 2,13.328 2,12Z" fill="#333333"/>
</svg>