<svg width="24" height="24" viewBox="0 0 24 24" fill="none" xmlns="http://www.w3.org/2000/svg">
<path d="M2.221 14.477C2.105 14.023 2.047 13.796 2.122 13.552C2.181 13.358 2.345 13.147 2.519 13.041C2.736 12.909 3.006 12.909 3.544 12.909H13.353L11.269 14.993C10.914 15.349 10.914 15.924 11.269 16.279C11.624 16.634 12.199 16.634 12.554 16.279L16.191 12.643C16.546 12.288 16.546 11.712 16.191 11.357L12.554 7.721C12.199 7.366 11.624 7.366 11.269 7.721C10.914 8.076 10.914 8.651 11.269 9.006L13.353 11.091H3.544C3.006 11.091 2.736 11.091 2.519 10.959C2.345 10.853 2.181 10.642 2.122 10.448C2.047 10.204 2.105 9.977 2.221 9.523C3.323 5.198 7.244 2 11.912 2C17.434 2 21.912 6.477 21.912 12C21.912 17.523 17.434 22 11.912 22C7.244 22 3.323 18.802 2.221 14.477Z" fill="#333333"/>
</svg>